<svg width="30" height="29" viewBox="0 0 30 29" fill="none" xmlns="http://www.w3.org/2000/svg">
<path fill-rule="evenodd" clip-rule="evenodd" d="M15 0C6.7125 0 0 6.59873 0 14.7458C0 21.2708 4.29375 26.782 10.2562 28.7358C11.0062 28.8648 11.2875 28.4225 11.2875 28.0354C11.2875 27.6852 11.2688 26.5239 11.2688 25.289C7.5 25.971 6.525 24.3858 6.225 23.5564C6.05625 23.1324 5.325 21.8237 4.6875 21.4735C4.1625 21.197 3.4125 20.515 4.66875 20.4966C5.85 20.4782 6.69375 21.5657 6.975 22.0081C8.325 24.2383 10.4812 23.6117 11.3437 23.2246C11.475 22.2661 11.8688 21.621 12.3 21.2523C8.9625 20.8837 5.475 19.6119 5.475 13.9716C5.475 12.368 6.05625 11.0409 7.0125 10.0087C6.8625 9.64004 6.3375 8.1286 7.1625 6.10106C7.1625 6.10106 8.41875 5.71398 11.2875 7.6125C12.4875 7.28072 13.7625 7.11483 15.0375 7.11483C16.3125 7.11483 17.5875 7.28072 18.7875 7.6125C21.6562 5.69555 22.9125 6.10106 22.9125 6.10106C23.7375 8.1286 23.2125 9.64004 23.0625 10.0087C24.0188 11.0409 24.6 12.3496 24.6 13.9716C24.6 19.6303 21.0938 20.8837 17.7562 21.2523C18.3 21.7131 18.7688 22.5979 18.7688 23.9803C18.7688 25.9525 18.75 27.5377 18.75 28.0354C18.75 28.4225 19.0312 28.8833 19.7812 28.7358C22.759 27.7475 25.3465 25.8661 27.1796 23.3565C29.0127 20.8469 29.9991 17.8354 30 14.7458C30 6.59873 23.2875 0 15 0Z" fill="#666666"/>
</svg>
