<svg width="34" height="33" viewBox="0 0 34 33" fill="none" xmlns="http://www.w3.org/2000/svg">
<path d="M18 1.9375C9.16429 1.9375 2 8.8779 2 17.4375C2 25.9971 9.16429 32.9375 18 32.9375C26.8357 32.9375 34 25.9971 34 17.4375C34 8.8779 26.8357 1.9375 18 1.9375ZM25.6893 13.6213C25.7 13.7839 25.7 13.9535 25.7 14.1195C25.7 19.1985 21.7071 25.0491 14.4107 25.0491C12.1607 25.0491 10.075 24.416 8.31786 23.3261C8.63929 23.3607 8.94643 23.3746 9.275 23.3746C11.1321 23.3746 12.8393 22.7656 14.2 21.7346C12.4571 21.7 10.9929 20.5929 10.4929 19.0705C11.1036 19.157 11.6536 19.157 12.2821 19.0013C11.3847 18.8247 10.5781 18.3526 9.99934 17.6651C9.42056 16.9776 9.10531 16.1173 9.10714 15.2301V15.1817C9.63214 15.4689 10.25 15.6453 10.8964 15.6695C10.353 15.3187 9.90735 14.8434 9.59897 14.2857C9.29059 13.728 9.12901 13.1053 9.12857 12.4727C9.12857 11.7565 9.32143 11.1026 9.66786 10.5352C10.6639 11.723 11.9069 12.6946 13.3159 13.3866C14.725 14.0787 16.2686 14.4757 17.8464 14.552C17.2857 11.9398 19.3 9.82589 21.7214 9.82589C22.8643 9.82589 23.8929 10.2895 24.6179 11.0368C25.5143 10.8742 26.3714 10.549 27.1357 10.1131C26.8393 11.0022 26.2179 11.753 25.3929 12.227C26.1929 12.144 26.9643 11.9295 27.6786 11.6285C27.1393 12.3965 26.4643 13.0781 25.6893 13.6213V13.6213Z" fill="#666666"/>
</svg>
